<svg xmlns="http://www.w3.org/2000/svg" viewBox="0 0 59.28 59.28"><defs>
<style>.cls-1,.cls-2{}.cls-1{fill-rule:evenodd;}</style>
</defs><g id="Layer_2" data-name="Layer 2"><g id="Layer_1-2" data-name="Layer 1"><g id="_152222920" data-name=" 152222920"><path id="_152222248" data-name=" 152222248" class="cls-1" d="M24.69,23c-5.45,3.14,2.86,18.72,8.82,15.28L39,47.85c-2.52,1.46-4.65,2.37-7.56.7-8.1-4.62-17-20-16.75-29.25.08-3.2,2-4.45,4.43-5.87L24.69,23Z"/><path id="_150519168" data-name=" 150519168" class="cls-1" d="M27,22.74a1.24,1.24,0,0,1-1.69-.45l-5.21-9a1.25,1.25,0,0,1,.46-1.69L23.26,10a1.24,1.24,0,0,1,1.69.45l5.21,9a1.24,1.24,0,0,1-.45,1.69L27,22.74Z"/><path id="_226148072" data-name=" 226148072" class="cls-1" d="M41.2,47.39a1.23,1.23,0,0,1-1.68-.45l-5.21-9a1.24,1.24,0,0,1,.45-1.69l2.74-1.58a1.23,1.23,0,0,1,1.68.45l5.21,9a1.24,1.24,0,0,1-.45,1.69L41.2,47.39Z"/></g><circle class="cls-2" cx="29.64" cy="29.64" r="29.14"/></g></g></svg>